<svg width="40" height="40" viewBox="0 0 40 40" fill="none" xmlns="http://www.w3.org/2000/svg">
<circle cx="20" cy="20" r="20" fill="#F3F2F2"/>
<circle cx="22.1909" cy="11.0952" r="1.09524" fill="#262524"/>
<circle cx="22.1909" cy="13.2866" r="1.09524" fill="#262524"/>
<circle cx="22.1909" cy="15.4761" r="1.09524" fill="#262524"/>
<circle cx="22.1909" cy="17.6675" r="1.09524" fill="#262524"/>
<circle cx="22.1909" cy="19.857" r="1.09524" fill="#262524"/>
<circle cx="22.1909" cy="22.0484" r="1.09524" fill="#262524"/>
<circle cx="22.1909" cy="24.2378" r="1.09524" fill="#262524"/>
<circle cx="20.0015" cy="13.2866" r="1.09524" fill="#262524"/>
<circle cx="20.0015" cy="15.4761" r="1.09524" fill="#262524"/>
<circle cx="20.0015" cy="17.6656" r="1.09524" fill="#262524"/>
<circle cx="20.0015" cy="19.857" r="1.09524" fill="#262524"/>
<circle cx="20.0015" cy="22.0484" r="1.09524" fill="#262524"/>
<circle cx="20.0015" cy="24.2378" r="1.09524" fill="#262524"/>
<circle cx="20.0015" cy="26.4273" r="1.09524" fill="#262524"/>
<circle cx="15.6187" cy="17.6656" r="1.09524" fill="#262524"/>
<circle cx="24.3813" cy="22.0473" r="1.09524" transform="rotate(180 24.3813 22.0473)" fill="#262524"/>
<circle cx="15.6187" cy="19.857" r="1.09524" fill="#262524"/>
<circle cx="24.3813" cy="19.8579" r="1.09524" transform="rotate(180 24.3813 19.8579)" fill="#262524"/>
<circle cx="13.4292" cy="19.857" r="1.09524" fill="#262524"/>
<circle cx="26.5727" cy="19.8579" r="1.09524" transform="rotate(180 26.5727 19.8579)" fill="#262524"/>
<circle cx="17.8101" cy="15.4761" r="1.09524" fill="#262524"/>
<circle cx="17.8101" cy="17.6675" r="1.09524" fill="#262524"/>
<circle cx="17.8101" cy="19.857" r="1.09524" fill="#262524"/>
<circle cx="17.8101" cy="22.0484" r="1.09524" fill="#262524"/>
<circle cx="17.8101" cy="24.2378" r="1.09524" fill="#262524"/>
<circle cx="17.8101" cy="26.4273" r="1.09524" fill="#262524"/>
<circle cx="17.8101" cy="28.6187" r="1.09524" fill="#262524"/>
</svg>
