<svg width="161" height="104" viewBox="0 0 161 104" fill="none" xmlns="http://www.w3.org/2000/svg">
<path d="M8.94067 78.024C10.6142 78.024 12.133 78.4263 13.497 79.231C14.8725 80.0357 15.9671 81.118 16.781 82.478C17.5948 83.8267 18.0017 85.3283 18.0017 86.983C18.0017 88.2183 17.7667 89.38 17.2968 90.468C16.8268 91.5447 16.1735 92.4967 15.3367 93.324C14.5114 94.14 13.5486 94.7803 12.4482 95.245C11.3592 95.7097 10.1901 95.942 8.94067 95.942C7.73712 95.942 6.68258 95.67 5.77705 95.126C4.88298 94.5707 4.14939 93.8623 3.57627 93.001V95.5H0V70H3.57627V80.965C4.14939 80.0923 4.88298 79.384 5.77705 78.84C6.68258 78.296 7.73712 78.024 8.94067 78.024ZM8.90629 92.508C9.90352 92.508 10.8148 92.2587 11.6401 91.76C12.4654 91.2613 13.1187 90.5927 13.6001 89.754C14.093 88.9153 14.3395 87.9917 14.3395 86.983C14.3395 85.9517 14.093 85.0167 13.6001 84.178C13.1073 83.3393 12.4482 82.6763 11.6229 82.189C10.7976 81.6903 9.89205 81.441 8.90629 81.441C7.90906 81.441 7.03219 81.6903 6.27567 82.189C5.51915 82.6877 4.92883 83.3563 4.50472 84.195C4.08061 85.0337 3.86856 85.963 3.86856 86.983C3.86856 88.003 4.08061 88.9323 4.50472 89.771C4.92883 90.6097 5.51915 91.2783 6.27567 91.777C7.03219 92.2643 7.90906 92.508 8.90629 92.508ZM20.4508 78.5H24.0271V95.5H20.4508V78.5ZM22.2734 76.035C21.7232 76.035 21.2647 75.8593 20.8979 75.508C20.5311 75.1567 20.3477 74.7147 20.3477 74.182C20.3477 73.6607 20.5311 73.2243 20.8979 72.873C21.2647 72.5103 21.7174 72.329 22.2562 72.329C22.7834 72.329 23.2305 72.5103 23.5973 72.873C23.9641 73.2243 24.1475 73.6607 24.1475 74.182C24.1475 74.7147 23.9641 75.1567 23.5973 75.508C23.2419 75.8593 22.8006 76.035 22.2734 76.035ZM28.2085 95.5V70H31.7848V95.5H28.2085ZM35.8983 95.5V78.5H39.4746V80.302C40.0707 79.5993 40.8043 79.044 41.6754 78.636C42.5465 78.228 43.4865 78.024 44.4951 78.024C45.137 78.024 45.7732 78.109 46.4036 78.279L44.9766 81.849C44.5295 81.679 44.0825 81.594 43.6355 81.594C42.879 81.594 42.1855 81.781 41.555 82.155C40.9246 82.5177 40.4203 83.0107 40.042 83.634C39.6637 84.2573 39.4746 84.9487 39.4746 85.708V95.5H35.8983ZM55.1499 95.942C53.5681 95.942 52.1239 95.5397 50.8171 94.735C49.5219 93.9303 48.4845 92.8537 47.7051 91.505C46.9371 90.145 46.5531 88.6433 46.5531 87C46.5531 85.7533 46.7766 84.5917 47.2237 83.515C47.6707 82.427 48.2839 81.475 49.0634 80.659C49.8543 79.8317 50.7713 79.1857 51.8144 78.721C52.8575 78.2563 53.9693 78.024 55.1499 78.024C56.4681 78.024 57.6774 78.296 58.7778 78.84C59.8782 79.3727 60.8181 80.115 61.5975 81.067C62.377 82.0077 62.9501 83.0957 63.3169 84.331C63.6837 85.555 63.7926 86.8583 63.6436 88.241H50.3873C50.5363 89.023 50.8229 89.7313 51.247 90.366C51.6826 90.9893 52.2327 91.4823 52.8976 91.845C53.5739 92.2077 54.3246 92.3947 55.1499 92.406C56.0211 92.406 56.812 92.1907 57.5227 91.76C58.2448 91.3293 58.8351 90.7343 59.2936 89.975L62.9214 90.808C62.2337 92.3153 61.1964 93.5507 59.8094 94.514C58.4225 95.466 56.8693 95.942 55.1499 95.942ZM50.2669 85.538H60.0329C59.9183 84.722 59.626 83.9853 59.156 83.328C58.6975 82.6593 58.1187 82.1323 57.4195 81.747C56.7317 81.3503 55.9752 81.152 55.1499 81.152C54.3361 81.152 53.5796 81.3447 52.8804 81.73C52.1926 82.1153 51.6195 82.6423 51.161 83.311C50.714 83.9683 50.416 84.7107 50.2669 85.538ZM79.5415 78.5H83.1177V95.942C83.1177 97.1093 82.8656 98.186 82.3612 99.172C81.8683 100.158 81.1978 101.008 80.3496 101.722C79.5013 102.447 78.527 103.008 77.4266 103.405C76.3377 103.802 75.1972 104 74.0051 104C72.8016 104 71.6439 103.745 70.532 103.235C69.4202 102.736 68.4401 102.056 67.5919 101.195C66.7551 100.334 66.1304 99.359 65.7178 98.271L69.0018 96.809C69.231 97.5117 69.5978 98.135 70.1022 98.679C70.618 99.223 71.214 99.6537 71.8903 99.971C72.578 100.288 73.283 100.447 74.0051 100.447C74.7158 100.447 75.3978 100.334 76.0512 100.107C76.716 99.8917 77.3063 99.5857 77.8221 99.189C78.3494 98.7923 78.7677 98.3163 79.0772 97.761C79.3867 97.2057 79.5415 96.5993 79.5415 95.942V93.069C78.9798 93.9303 78.2577 94.6273 77.3751 95.16C76.4925 95.6813 75.4666 95.942 74.2974 95.942C73.0824 95.942 71.9361 95.7097 70.8587 95.245C69.7812 94.7803 68.8356 94.14 68.0217 93.324C67.2079 92.4967 66.5717 91.5447 66.1132 90.468C65.6547 89.3913 65.4255 88.2353 65.4255 87C65.4255 85.7647 65.6547 84.6087 66.1132 83.532C66.5717 82.444 67.2079 81.492 68.0217 80.676C68.8356 79.8487 69.7812 79.2027 70.8587 78.738C71.9361 78.2733 73.0824 78.041 74.2974 78.041C75.4666 78.041 76.4925 78.3073 77.3751 78.84C78.2577 79.3613 78.9798 80.0583 79.5415 80.931V78.5ZM74.3318 92.525C75.329 92.525 76.2002 92.2757 76.9452 91.777C77.6903 91.267 78.2691 90.5927 78.6818 89.754C79.0944 88.9153 79.3007 87.9973 79.3007 87C79.3007 85.98 79.0887 85.0563 78.6646 84.229C78.2519 83.3903 77.6731 82.7217 76.928 82.223C76.183 81.713 75.3176 81.458 74.3318 81.458C73.3689 81.458 72.4863 81.7073 71.684 82.206C70.8931 82.7047 70.2626 83.3733 69.7927 84.212C69.3227 85.0507 69.0877 85.98 69.0877 87C69.0877 88.02 69.3227 88.9493 69.7927 89.788C70.2741 90.6267 70.9103 91.2953 71.7012 91.794C72.5035 92.2813 73.3804 92.525 74.3318 92.525ZM86.9419 78.5H90.5181V95.5H86.9419V78.5ZM88.7644 76.035C88.2142 76.035 87.7557 75.8593 87.3889 75.508C87.0221 75.1567 86.8387 74.7147 86.8387 74.182C86.8387 73.6607 87.0221 73.2243 87.3889 72.873C87.7557 72.5103 88.2085 72.329 88.7472 72.329C89.2745 72.329 89.7215 72.5103 90.0883 72.873C90.4551 73.2243 90.6385 73.6607 90.6385 74.182C90.6385 74.7147 90.4551 75.1567 90.0883 75.508C89.733 75.8593 89.2917 76.035 88.7644 76.035ZM99.5548 95.823C98.6493 95.7663 97.7667 95.585 96.907 95.279C96.0473 94.973 95.2908 94.5593 94.6374 94.038C93.9955 93.5053 93.5141 92.882 93.1932 92.168L96.2365 90.876C96.3855 91.182 96.6434 91.4823 97.0102 91.777C97.3884 92.0717 97.8297 92.3153 98.3341 92.508C98.8384 92.6893 99.3657 92.78 99.9159 92.78C100.455 92.78 100.953 92.7063 101.412 92.559C101.882 92.4003 102.266 92.1623 102.564 91.845C102.862 91.5277 103.011 91.148 103.011 90.706C103.011 90.2073 102.839 89.822 102.495 89.55C102.163 89.2667 101.744 89.0513 101.24 88.904C100.735 88.7567 100.231 88.615 99.7268 88.479C98.6034 88.2297 97.5718 87.8897 96.6319 87.459C95.7035 87.017 94.9641 86.456 94.4139 85.776C93.8637 85.0847 93.5886 84.2403 93.5886 83.243C93.5886 82.155 93.8867 81.2143 94.4827 80.421C95.0788 79.6163 95.8582 78.9987 96.821 78.568C97.7953 78.1373 98.8327 77.922 99.9331 77.922C101.309 77.922 102.569 78.211 103.716 78.789C104.862 79.367 105.739 80.1603 106.346 81.169L103.509 82.835C103.337 82.495 103.08 82.189 102.736 81.917C102.392 81.645 102.002 81.4297 101.566 81.271C101.131 81.101 100.678 81.0047 100.208 80.982C99.6236 80.9593 99.0791 81.0273 98.5748 81.186C98.0819 81.3333 97.6864 81.5713 97.3884 81.9C97.0904 82.2287 96.9414 82.648 96.9414 83.158C96.9414 83.6567 97.1191 84.0307 97.4744 84.28C97.8297 84.518 98.2768 84.7107 98.8155 84.858C99.3657 85.0053 99.9273 85.1697 100.5 85.351C101.521 85.6683 102.478 86.0593 103.372 86.524C104.266 86.9773 104.988 87.5383 105.538 88.207C106.088 88.8757 106.352 89.6917 106.329 90.655C106.329 91.7203 106.002 92.6553 105.349 93.46C104.707 94.2647 103.87 94.8767 102.839 95.296C101.807 95.7153 100.713 95.891 99.5548 95.823ZM118.352 82.036H114.741L114.724 95.5H111.148L111.165 82.036H108.431V78.5H111.165L111.148 73.162H114.724L114.741 78.5H118.352V82.036ZM121.43 95.5V78.5H125.006V80.302C125.602 79.5993 126.336 79.044 127.207 78.636C128.078 78.228 129.018 78.024 130.027 78.024C130.669 78.024 131.305 78.109 131.935 78.279L130.508 81.849C130.061 81.679 129.614 81.594 129.167 81.594C128.41 81.594 127.717 81.781 127.087 82.155C126.456 82.5177 125.952 83.0107 125.574 83.634C125.195 84.2573 125.006 84.9487 125.006 85.708V95.5H121.43ZM140.681 95.942C139.1 95.942 137.655 95.5397 136.349 94.735C135.053 93.9303 134.016 92.8537 133.237 91.505C132.469 90.145 132.085 88.6433 132.085 87C132.085 85.7533 132.308 84.5917 132.755 83.515C133.202 82.427 133.815 81.475 134.595 80.659C135.386 79.8317 136.303 79.1857 137.346 78.721C138.389 78.2563 139.501 78.024 140.681 78.024C142 78.024 143.209 78.296 144.309 78.84C145.41 79.3727 146.35 80.115 147.129 81.067C147.909 82.0077 148.482 83.0957 148.848 84.331C149.215 85.555 149.324 86.8583 149.175 88.241H135.919C136.068 89.023 136.354 89.7313 136.779 90.366C137.214 90.9893 137.764 91.4823 138.429 91.845C139.105 92.2077 139.856 92.3947 140.681 92.406C141.553 92.406 142.343 92.1907 143.054 91.76C143.776 91.3293 144.367 90.7343 144.825 89.975L148.453 90.808C147.765 92.3153 146.728 93.5507 145.341 94.514C143.954 95.466 142.401 95.942 140.681 95.942ZM135.798 85.538H145.564C145.45 84.722 145.158 83.9853 144.688 83.328C144.229 82.6593 143.65 82.1323 142.951 81.747C142.263 81.3503 141.507 81.152 140.681 81.152C139.868 81.152 139.111 81.3447 138.412 81.73C137.724 82.1153 137.151 82.6423 136.693 83.311C136.246 83.9683 135.947 84.7107 135.798 85.538ZM161 82.036H157.389L157.372 95.5H153.796L153.813 82.036H151.079V78.5H153.813L153.796 73.162H157.372L157.389 78.5H161V82.036Z" fill="white"/>
<path d="M84.1393 0.479173C84.3473 0.18179 84.6896 0.000205072 85.0416 0.000540732L98.6003 0.01347C99.3794 0.014213 99.7883 0.85241 99.3318 1.51305L90.8743 13.7514C90.6318 14.1023 90.621 14.5456 90.847 14.8681L105.685 36.0364C105.88 36.3151 105.9 36.6879 105.738 37.0154L99.3172 50L89.8058 36.6667L83.2774 27.1673C82.8936 26.6089 82.022 26.6593 81.6065 27.2639L76.1735 35.1695C75.7192 35.8305 76.1291 36.6667 76.9075 36.6667L89.8058 36.6667L99.3172 50L61.0625 50C60.704 50 60.3891 49.8114 60.2361 49.5051L56.1641 41.3521C56.0077 41.039 56.0451 40.652 56.2616 40.3423L84.1393 0.479173Z" fill="white"/>
</svg>
